<svg xmlns="http://www.w3.org/2000/svg" width="588" height="286" version="1.1"><rect id="backgroundrect" width="100%" height="100%" x="0" y="0" fill="none" stroke="none" class="" style=""/>



<g class="currentLayer" style=""><title>Туроператор Русь</title><g id="#ee0131ff" class="">
<path fill="#ee0131" opacity="1.00" d="M260.7439164459705,4.5737307906150875 C269.07391644597055,-1.04626920938491 279.89391644597055,0.633730790615099 288.7439164459705,4.003730790615094 C290.32391644597055,4.8737307906150855 292.50391644597056,5.5837307906150935 293.1139164459705,7.443730790615092 C292.33391644597054,12.273730790615083 289.38391644597056,16.543730790615086 289.1039164459705,21.493730790615082 C288.7939164459705,27.033730790615095 288.2539164459706,32.543730790615086 288.1139164459705,38.09373079061507 C282.0039164459706,38.12373079061508 277.77391644597054,32.133730790615076 271.59391644597054,32.67373079061508 C262.91391644597053,32.59373079061507 257.41391644597053,40.77373079061507 253.66391644597053,47.55373079061508 C244.08391644597054,66.4737307906151 240.55391644597051,87.63373079061506 236.16391644597053,108.17373079061508 C233.36391644597052,122.85373079061509 229.70391644597055,137.3537307906151 226.81391644597053,152.00373079061507 C230.50391644597053,152.1037307906151 234.20391644597055,152.12373079061507 237.90391644597054,152.1437307906151 C237.94391644597056,155.37373079061507 237.94391644597056,158.6037307906151 237.90391644597054,161.84373079061504 C234.05391644597051,162.3337307906151 229.67391644597055,161.1537307906151 226.17391644597055,162.62373079061507 C225.00391644597053,174.18373079061507 224.67391644597055,185.83373079061516 225.19391644597053,197.44373079061506 C225.68391644597054,204.55373079061508 228.11391644597055,211.4137307906151 228.10391644597053,218.56373079061507 C220.97391644597053,218.57373079061506 213.92391644597055,219.84373079061504 206.80391644597054,219.75373079061512 C206.94391644597053,203.74373079061507 208.36391644597055,187.76373079061506 210.53391644597053,171.9037307906151 C211.11391644597055,168.62373079061507 211.28391644597053,165.30373079061508 211.34391644597054,161.98373079061508 C204.62391644597054,161.88373079061506 197.89391644597055,162.07373079061506 191.17391644597055,161.84373079061504 C180.74391644597054,118.99373079061507 170.42391644597055,76.11373079061508 160.02391644597054,33.263730790615085 C158.25391644597053,26.773730790615083 157.27391644597054,20.073730790615087 154.99391644597054,13.733730790615098 C152.03391644597053,13.763730790615085 149.07391644597053,13.733730790615098 146.11391644597055,13.733730790615098 C146.05391644597054,10.453730790615083 146.04391644597052,7.1737307906150996 146.05391644597054,3.8937307906150878 C166.25391644597053,3.8537307906150957 186.44391644597053,3.8737307906150846 206.64391644597055,3.8837307906150755 C206.91391644597053,7.143730790615088 206.89391644597055,10.413730790615105 206.80391644597054,13.683730790615073 C201.74391644597054,13.793730790615086 196.68391644597054,13.733730790615098 191.62391644597054,13.793730790615086 C191.83391644597054,17.37373079061507 192.71391644597054,20.843730790615076 193.62391644597054,24.283730790615103 C201.01391644597052,55.82373079061508 208.47391644597053,87.3437307906151 215.92391644597055,118.86373079061502 C217.01391644597052,123.4037307906151 217.87391644597054,128.00373079061507 219.33391644597054,132.45373079061505 C220.69391644597053,128.3537307906151 221.43391644597054,124.09373079061513 222.36391644597055,119.88373079061506 C228.81391644597053,90.9737307906151 235.40391644597054,62.05373079061505 243.84391644597054,33.64373079061508 C247.36391644597052,23.043730790615086 250.92391644597052,11.093730790615076 260.7439164459705,4.5737307906150875 z" id="svg_2"/>
<path fill="#ee0131" opacity="1.00" d="M337.76391644597055,10.673730790615082 C349.34391644597054,3.5737307906150875 363.1139164459705,0.5437307906150918 376.6139164459705,0.9137307906150892 C393.06391644597056,0.9437307906151283 410.41391644597053,5.8237307906150875 422.0539164459705,17.993730790615075 C430.4239164459705,26.573730790615087 434.94391644597056,38.033730790615095 437.3639164459705,49.59373079061507 C440.32391644597055,49.793730790615086 443.2939164459705,49.84373079061507 446.26391644597055,49.883730790615076 C446.3039164459705,53.15373079061504 446.2939164459705,56.42373079061508 446.19391644597056,59.69373079061509 C426.57391644597055,59.68373079061507 406.95391644597055,59.69373079061509 387.33391644597054,59.69373079061509 C387.2539164459706,56.413730790615105 387.2839164459705,53.13373079061506 387.2939164459705,49.85373079061509 C390.57391644597055,49.82373079061508 393.8539164459705,49.81373079061507 397.13391644597056,49.76373079061509 C397.46391644597054,40.10373079061509 396.3039164459705,30.013730790615085 391.58391644597054,21.413730790615105 C388.1139164459705,14.93373079061508 381.06391644597056,10.38373079061509 373.6039164459705,10.743730790615075 C366.07391644597055,10.083730790615078 358.6039164459705,14.053730790615056 354.4339164459705,20.243730790615082 C348.13391644597056,29.293730790615086 346.2339164459705,40.61373079061508 345.84391644597054,51.413730790615105 C344.81391644597056,60.783730790615095 345.89391644597055,70.2137307906151 346.65391644597054,79.55373079061508 C349.09391644597054,102.44373079061512 358.66391644597053,124.2437307906151 358.3739164459705,147.4637307906151 C358.4339164459705,151.70373079061505 357.13391644597056,155.79373079061511 355.89391644597055,159.79373079061511 C362.4839164459705,163.20373079061505 370.41391644597053,159.99373079061507 375.64391644597055,155.4637307906151 C390.90391644597054,141.73373079061508 398.9239164459705,120.5937307906151 397.1039164459705,100.18373079061507 C393.8639164459705,100.1537307906151 390.63391644597056,100.13373079061506 387.40391644597054,100.11373079061502 C387.2339164459705,96.9637307906151 387.26391644597055,93.80373079061508 387.38391644597056,90.64373079061511 C407.01391644597055,90.61373079061508 426.64391644597055,90.62373079061507 446.27391644597054,90.64373079061511 C446.2939164459705,93.7837307906151 446.3039164459705,96.93373079061507 446.3039164459705,100.07373079061506 C443.33391644597054,100.11373079061502 440.38391644597056,100.18373079061507 437.4339164459705,100.36373079061508 C437.14391644597055,114.2737307906151 431.70391644597055,127.87373079061507 422.34391644597054,138.17373079061508 C408.44391644597056,153.50373079061512 389.26391644597055,164.73373079061508 368.46391644597054,166.8537307906151 C360.3639164459705,167.2737307906151 351.84391644597054,167.94373079061506 344.2539164459706,164.51373079061506 C344.2539164459706,157.3337307906151 344.26391644597055,149.84373079061513 340.9239164459705,143.28373079061515 C332.9939164459705,127.1537307906151 319.26391644597055,114.72373079061512 311.64391644597055,98.38373079061506 C304.90391644597054,85.01373079061506 304.89391644597055,69.37373079061507 307.2939164459705,54.91373079061509 C310.3739164459705,36.61373079061508 321.9839164459705,20.273730790615083 337.76391644597055,10.673730790615082 z" id="svg_3"/>
<path fill="#ee0131" opacity="1.00" d="M24.99391644597054,26.773730790615083 C34.593916445970535,11.673730790615082 51.97391644597053,2.493730790615075 69.60391644597054,1.0437307906150863 C81.48391644597054,0.3637307906150806 93.71391644597054,1.6837307906150853 104.74391644597054,6.343730790615076 C116.77391644597054,11.353730790615096 127.15391644597054,21.513730790615085 130.49391644597054,34.34373079061507 C133.65391644597054,46.44373079061509 131.86391644597055,59.743730790615075 125.78391644597053,70.66373079061509 C121.18391644597054,78.2137307906151 114.40391644597054,84.7837307906151 105.93391644597054,87.76373079061507 C99.07391644597055,90.16373079061509 91.37391644597054,90.58373079061516 84.40391644597054,88.38373079061506 C79.54391644597054,86.5237307906151 75.23391644597054,83.51373079061507 70.45391644597053,81.45373079061505 C65.11391644597053,87.94373079061506 59.94391644597053,94.60373079061509 55.07391644597054,101.44373079061512 C54.623916445970536,118.29373079061509 54.923916445970534,135.19373079061512 54.94391644597053,152.06373079061507 C61.04391644597054,152.11373079061502 67.14391644597053,152.07373079061506 73.24391644597054,152.09373079061513 C73.38391644597054,155.37373079061507 73.39391644597053,158.6637307906151 73.31391644597053,161.95373079061505 C49.24391644597054,161.92373079061508 25.163916445970532,161.95373079061505 1.0839164459705308,161.94373079061506 C1.0539164459705366,158.6637307906151 1.0439164459705346,155.38373079061506 1.0939164459705357,152.11373079061502 C7.353916445970538,152.11373079061502 13.613916445970542,152.19373079061512 19.873916445970536,151.9737307906151 C20.083916445970537,114.44373079061512 19.573916445970532,76.90373079061507 20.233916445970536,39.37373079061508 C20.043916445970538,34.69373079061509 22.653916445970538,30.613730790615087 24.99391644597054,26.773730790615083 M58.453916445970535,21.523730790615083 C55.093916445970535,30.053730790615056 54.96391644597054,39.37373079061508 54.923916445970534,48.413730790615105 C54.873916445970536,61.413730790615105 54.72391644597053,74.41373079061509 54.97391644597053,87.41373079061509 C59.85391644597054,81.9737307906151 64.16391644597053,76.06373079061507 68.89391644597053,70.5037307906151 C71.97391644597053,71.99373079061507 74.99391644597054,74.33373079061508 78.61391644597053,73.88373079061506 C83.60391644597054,73.62373079061507 87.36391644597053,69.39373079061508 89.15391644597054,65.0337307906151 C93.07391644597055,55.68373079061507 92.24391644597054,45.31373079061507 91.95391644597053,35.42373079061508 C91.10391644597054,28.123730790615078 90.00391644597053,19.94373079061512 84.37391644597054,14.623730790615078 C80.27391644597054,10.593730790615076 74.02391644597054,10.103730790615096 68.65391644597054,11.19373079061512 C63.75391644597053,12.64373079061508 60.24391644597054,16.893730790615088 58.453916445970535,21.523730790615083 z" id="svg_4"/>
<path fill="#ee0131" opacity="1.00" d="M461.13391644597056,3.943730790615123 C485.19391644597056,3.803730790615078 509.2539164459705,3.943730790615123 533.3239164459706,3.8737307906150846 C533.4039164459705,7.1737307906150996 533.4139164459706,10.483730790615084 533.3239164459706,13.793730790615086 C527.2039164459705,13.743730790615075 521.0839164459705,13.713730790615074 514.9639164459705,13.803730790615077 C514.8339164459705,32.38373079061509 514.8739164459705,50.95373079061508 514.9339164459706,69.5337307906151 C525.8839164459705,79.12373079061507 540.0839164459705,84.0337307906151 554.0939164459705,87.0937307906151 C562.7539164459705,89.18373079061507 571.6739164459706,86.93373079061507 580.3939164459705,87.91373079061509 C585.5539164459706,88.89373079061511 586.8439164459705,94.95373079061505 587.0139164459705,99.39373079061511 C587.1539164459705,114.72373079061512 587.0339164459706,130.07373079061506 587.0739164459706,145.4137307906151 C587.0739164459706,149.82373079061506 586.9039164459705,154.55373079061508 584.5739164459706,158.44373079061512 C582.4439164459706,161.72373079061512 578.0839164459705,161.82373079061506 574.5839164459705,161.95373079061505 C536.7639164459705,161.9737307906151 498.93391644597057,161.9737307906151 461.1039164459705,161.93373079061507 C461.0439164459705,158.6437307906151 461.0539164459705,155.36373079061508 461.1239164459705,152.07373079061506 C467.38391644597056,152.12373079061507 473.65391644597054,152.2237307906151 479.9239164459705,151.9637307906151 C479.95391644597055,105.91373079061509 479.9939164459705,59.86373079061508 479.89391644597055,13.823730790615087 C473.64391644597055,13.653730790615079 467.38391644597056,13.803730790615077 461.13391644597056,13.723730790615093 C461.0439164459705,10.463730790615074 461.06391644597056,7.203730790615084 461.13391644597056,3.943730790615123 M514.9139164459706,81.73373079061508 C514.8839164459705,105.18373079061507 514.8439164459705,128.63373079061506 514.9339164459706,152.07373079061506 C523.1539164459705,152.09373079061513 531.3739164459705,152.1637307906151 539.5939164459705,152.01373079061506 C543.3639164459705,151.9737307906151 547.3939164459705,150.7137307906151 549.7939164459706,147.6437307906151 C551.8239164459706,145.05373079061508 552.1439164459705,141.62373079061507 552.1139164459705,138.44373079061512 C552.0539164459706,127.76373079061506 552.1539164459705,117.07373079061506 552.0739164459706,106.39373079061511 C551.8139164459706,103.72373079061512 551.9339164459706,100.20373079061505 549.2439164459705,98.7137307906151 C545.2639164459705,96.26373079061506 540.6239164459705,95.30373079061508 536.2939164459706,93.66373079061509 C528.5239164459705,91.01373079061506 521.2639164459705,86.92373079061508 514.9139164459706,81.73373079061508 z" id="svg_5"/>
</g><g id="#010101ff" class="">
<path fill="#010101" opacity="1.00" d="M118.011216275692,228.48373079061514 C121.53121627569197,225.7237307906151 126.62121627569198,223.62373079061507 130.641216275692,226.69373079061506 C136.00121627569197,231.23373079061514 135.541216275692,239.05373079061508 135.53121627569197,245.43373079061507 C135.31121627569198,252.95373079061505 136.72121627569197,261.7737307906151 131.351216275692,267.9237307906151 C127.45121627569199,271.94373079061506 121.23121627569199,270.3537307906151 117.47121627569197,266.9937307906151 C117.37121627569198,272.70373079061505 117.42121627569199,278.4237307906151 117.43121627569198,284.1437307906151 C114.791216275692,284.12373079061507 112.161216275692,284.12373079061507 109.52121627569198,284.1637307906151 C109.411216275692,264.7737307906151 109.541216275692,245.3937307906151 109.441216275692,226.00373079061507 C111.911216275692,225.9737307906151 114.37121627569198,225.9737307906151 116.84121627569198,225.92373079061508 C117.131216275692,226.56373079061507 117.72121627569197,227.84373079061504 118.011216275692,228.48373079061514 M117.50121627569197,233.45373079061505 C117.36121627569199,243.12373079061507 117.441216275692,252.78373079061515 117.46121627569195,262.45373079061505 C120.33121627569199,264.01373079061506 125.62121627569198,265.7337307906151 126.87121627569198,261.3537307906151 C128.261216275692,255.48373079061514 127.34121627569198,249.36373079061508 127.62121627569198,243.38373079061506 C127.39121627569199,239.56373079061507 128.351216275692,234.82373079061506 125.21121627569198,231.93373079061507 C122.52121627569198,230.93373079061507 119.86121627569199,232.23373079061514 117.50121627569197,233.45373079061505 z" id="svg_6"/>
<path fill="#010101" opacity="1.00" d="M177.131216275692,225.34373079061513 C182.25121627569197,224.44373079061506 188.46121627569195,226.5437307906151 190.361216275692,231.77373079061513 C192.921216275692,239.0437307906151 191.80121627569198,246.8937307906151 192.041216275692,254.44373079061506 C191.72121627569197,259.5937307906151 191.09121627569198,265.9037307906151 186.18121627569198,268.83373079061516 C180.62121627569198,271.5537307906151 172.361216275692,271.03373079061515 168.93121627569198,265.2437307906151 C166.05121627569198,259.7737307906151 166.661216275692,253.38373079061506 166.611216275692,247.42373079061508 C166.601216275692,242.20373079061505 166.34121627569198,236.7937307906151 168.261216275692,231.83373079061516 C169.671216275692,228.18373079061507 173.291216275692,225.75373079061512 177.131216275692,225.34373079061513 M177.21121627569198,231.6037307906151 C174.77121627569198,232.86373079061502 174.881216275692,235.99373079061507 174.631216275692,238.34373079061513 C174.641216275692,245.06373079061507 174.46121627569195,251.7937307906151 174.731216275692,258.5037307906151 C175.011216275692,260.6737307906151 175.191216275692,264.063730790615 178.06121627569198,264.2537307906151 C179.791216275692,264.3437307906151 182.28121627569197,264.6737307906151 183.03121627569197,262.6537307906151 C184.981216275692,257.47373079061504 183.84121627569198,251.81373079061507 184.141216275692,246.42373079061508 C183.921216275692,241.59373079061513 185.05121627569198,236.18373079061507 182.25121627569197,231.8937307906151 C180.72121627569197,231.2137307906151 178.761216275692,230.73373079061508 177.21121627569198,231.6037307906151 z" id="svg_7"/>
<path fill="#010101" opacity="1.00" d="M287.66121627569197,226.44373079061506 C292.641216275692,224.37373079061507 299.631216275692,224.4637307906151 303.24121627569207,229.00373079061512 C306.691216275692,234.56373079061507 306.011216275692,241.48373079061514 306.141216275692,247.76373079061506 C300.451216275692,247.8537307906151 294.761216275692,247.7937307906151 289.081216275692,247.80373079061508 C289.211216275692,252.20373079061505 288.811216275692,256.6437307906151 289.371216275692,261.0237307906151 C289.931216275692,264.38373079061506 294.401216275692,265.2937307906151 296.92121627569196,263.56373079061507 C298.691216275692,260.9337307906151 298.341216275692,257.6537307906151 298.431216275692,254.6537307906151 C301.031216275692,254.62373079061507 303.641216275692,254.63373079061506 306.251216275692,254.7237307906151 C306.131216275692,259.70373079061505 305.471216275692,265.69373079061506 300.98121627569196,268.7437307906151 C297.04121627569197,270.82373079061506 292.141216275692,270.7537307906151 287.98121627569196,269.3937307906151 C283.391216275692,267.7737307906151 281.761216275692,262.5937307906151 281.381216275692,258.19373079061506 C281.011216275692,251.4037307906151 281.04121627569197,244.59373079061513 281.35121627569197,237.81373079061507 C281.66121627569197,233.4037307906151 283.191216275692,228.28373079061515 287.66121627569197,226.44373079061506 M289.581216275692,233.99373079061507 C288.881216275692,237.01373079061506 289.191216275692,240.1537307906151 289.081216275692,243.24373079061507 C292.191216275692,243.24373079061507 295.301216275692,243.23373079061514 298.41121627569197,243.20373079061505 C298.2712162756919,240.00373079061512 298.73121627569196,236.67373079061508 297.691216275692,233.59373079061513 C296.66121627569197,229.99373079061507 290.471216275692,230.4037307906151 289.581216275692,233.99373079061507 z" id="svg_8"/>
<path fill="#010101" opacity="1.00" d="M346.461216275692,229.32373079061506 C349.5212162756919,225.92373079061508 354.751216275692,223.6537307906151 358.98121627569196,226.38373079061506 C364.321216275692,230.1437307906151 364.531216275692,237.51373079061506 364.441216275692,243.42373079061508 C364.11121627569196,250.78373079061515 365.561216275692,258.70373079061505 361.98121627569196,265.51373079061506 C360.141216275692,269.6137307906151 354.79121627569197,271.5037307906151 350.73121627569196,269.69373079061506 C349.181216275692,268.9137307906151 347.801216275692,267.8537307906151 346.35121627569197,266.9337307906151 C346.281216275692,272.6637307906151 346.371216275692,278.3937307906151 346.311216275692,284.12373079061507 C343.701216275692,284.113730790615 341.081216275692,284.113730790615 338.48121627569196,284.1837307906151 C338.261216275692,264.78373079061515 338.451216275692,245.37373079061507 338.381216275692,225.9737307906151 C341.001216275692,225.9637307906151 343.61121627569196,225.9637307906151 346.23121627569196,225.9737307906151 C346.29121627569197,226.81373079061507 346.401216275692,228.48373079061514 346.461216275692,229.32373079061506 M346.451216275692,233.45373079061505 C346.211216275692,243.12373079061507 346.321216275692,252.81373079061507 346.381216275692,262.4937307906151 C348.771216275692,263.51373079061506 351.461216275692,264.8537307906151 354.091216275692,263.76373079061506 C356.131216275692,262.2737307906151 356.301216275692,259.5237307906151 356.461216275692,257.22373079061504 C356.621216275692,251.2737307906151 356.531216275692,245.30373079061508 356.511216275692,239.3537307906151 C356.451216275692,236.77373079061513 356.251216275692,233.82373079061506 354.191216275692,231.98373079061508 C351.501216275692,230.9137307906151 348.811216275692,232.20373079061505 346.451216275692,233.45373079061505 z" id="svg_9"/>
<path fill="#010101" opacity="1.00" d="M400.191216275692,227.73373079061508 C404.531216275692,224.6037307906151 410.761216275692,224.31373079061507 415.461216275692,226.81373079061507 C418.91121627569197,228.75373079061512 420.151216275692,232.92373079061508 420.36121627569196,236.63373079061506 C420.841216275692,247.6537307906151 419.751216275692,258.7337307906151 421.29121627569197,269.69373079061506 C418.85121627569197,269.6737307906151 416.42121627569196,269.6537307906151 414.001216275692,269.58373079061516 C413.641216275692,267.7737307906151 413.311216275692,265.96373079061516 412.961216275692,264.1637307906151 C411.901216275692,265.56373079061507 410.961216275692,267.063730790615 409.73121627569196,268.313730790615 C406.651216275692,271.2137307906151 401.251216275692,270.9837307906151 398.431216275692,267.83373079061516 C393.711216275692,262.7337307906151 394.79121627569197,253.9137307906151 399.771216275692,249.36373079061508 C403.151216275692,246.0237307906151 407.831216275692,244.70373079061505 411.971216275692,242.62373079061507 C413.211216275692,240.63373079061506 412.261216275692,237.81373079061507 412.381216275692,235.51373079061506 C412.621216275692,232.68373079061507 409.641216275692,230.34373079061513 406.951216275692,231.37373079061507 C403.141216275692,232.06373079061507 403.581216275692,236.67373079061508 403.401216275692,239.59373079061513 C400.761216275692,239.6037307906151 398.131216275692,239.6037307906151 395.501216275692,239.5437307906151 C395.92121627569196,235.31373079061507 396.531216275692,230.47373079061504 400.191216275692,227.73373079061508 M405.16121627569197,252.68373079061507 C402.841216275692,255.4137307906151 402.761216275692,259.6637307906151 404.67121627569196,262.6437307906151 C408.11121627569196,264.9237307906151 413.2712162756919,261.4637307906151 412.531216275692,257.4637307906151 C412.5212162756919,254.07373079061506 412.5212162756919,250.69373079061506 412.41121627569197,247.32373079061506 C409.86121627569196,248.8937307906151 407.131216275692,250.3537307906151 405.16121627569197,252.68373079061507 z" id="svg_10"/>
<path fill="#010101" opacity="1.00" d="M450.331216275692,225.95373079061505 C458.371216275692,225.9737307906151 466.42121627569196,225.99373079061507 474.471216275692,225.93373079061507 C474.461216275692,227.94373079061506 474.461216275692,229.95373079061505 474.471216275692,231.9737307906151 C471.751216275692,231.99373079061507 469.04121627569197,232.00373079061512 466.331216275692,232.0237307906151 C466.35121627569197,244.5437307906151 466.29121627569197,257.0537307906151 466.36121627569196,269.56373079061507 C463.721216275692,269.6837307906151 461.071216275692,269.6837307906151 458.441216275692,269.6537307906151 C458.2712162756919,257.08373079061516 458.66121627569197,244.49373079061507 458.251216275692,231.93373079061507 C455.60121627569197,232.0237307906151 452.961216275692,232.01373079061506 450.321216275692,232.00373079061512 C450.331216275692,229.98373079061508 450.341216275692,227.9737307906151 450.331216275692,225.95373079061505 z" id="svg_11"/>
<path fill="#010101" opacity="1.00" d="M513.081216275692,225.2937307906151 C517.721216275692,224.62373079061507 523.331216275692,226.1437307906151 525.581216275692,230.62373079061507 C528.411216275692,236.1037307906151 527.581216275692,242.47373079061504 527.731216275692,248.42373079061508 C527.6412162756919,254.4137307906151 528.351216275692,261.063730790615 524.811216275692,266.313730790615 C521.021216275692,271.1037307906151 513.551216275692,271.33373079061516 508.38121627569194,268.863730790615 C502.821216275692,265.48373079061514 502.36121627569196,258.2437307906151 502.48121627569196,252.4137307906151 C502.78121627569203,245.52373079061513 501.51121627569194,238.30373079061508 504.12121627569195,231.7237307906151 C505.5212162756921,228.00373079061512 509.25121627569195,225.73373079061508 513.081216275692,225.2937307906151 M513.121216275692,231.44373079061506 C510.36121627569196,233.01373079061506 510.431216275692,236.61373079061508 510.451216275692,239.38373079061506 C510.581216275692,246.36373079061508 510.221216275692,253.3537307906151 510.64121627569193,260.32373079061506 C510.581216275692,264.6737307906151 517.271216275692,266.0237307906151 519.021216275692,262.2737307906151 C520.681216275692,255.78373079061515 519.771216275692,249.01373079061506 520.021216275692,242.3937307906151 C519.811216275692,238.94373079061506 520.101216275692,235.12373079061507 518.201216275692,232.08373079061516 C516.691216275692,231.2137307906151 514.771216275692,230.7937307906151 513.121216275692,231.44373079061506 z" id="svg_12"/>
<path fill="#010101" opacity="1.00" d="M560.401216275692,226.12373079061507 C562.951216275692,225.94373079061506 565.521216275692,225.94373079061506 568.091216275692,225.94373079061506 C568.271216275692,226.6037307906151 568.6412162756919,227.9137307906151 568.831216275692,228.57373079061506 C571.911216275692,226.49373079061507 575.751216275692,223.9637307906151 579.571216275692,225.7237307906151 C584.3912162756919,227.26373079061506 585.851216275692,232.9137307906151 586.3812162756919,237.38373079061506 C586.621216275692,244.20373079061505 586.751216275692,251.07373079061506 586.311216275692,257.88373079061506 C585.701216275692,262.6637307906151 583.941216275692,268.78373079061515 578.571216275692,270.0237307906151 C574.851216275692,271.2737307906151 571.411216275692,269.0437307906151 568.471216275692,267.0437307906151 C568.431216275692,272.7237307906151 568.471216275692,278.4137307906151 568.441216275692,284.0937307906151 C565.821216275692,284.12373079061507 563.201216275692,284.113730790615 560.581216275692,284.1537307906151 C560.271216275692,264.81373079061507 560.6412162756919,245.47373079061504 560.401216275692,226.12373079061507 M568.541216275692,233.48373079061514 C568.3812162756919,243.13373079061512 568.491216275692,252.7937307906151 568.491216275692,262.45373079061505 C570.991216275692,263.5437307906151 574.321216275692,265.2137307906151 576.811216275692,263.3037307906151 C579.501216275692,259.2137307906151 578.331216275692,254.0237307906151 578.6312162756919,249.42373079061508 C578.321216275692,244.24373079061507 579.431216275692,238.7837307906151 577.621216275692,233.82373079061506 C576.0112162756919,229.99373079061507 571.161216275692,231.9037307906151 568.541216275692,233.48373079061514 z" id="svg_13"/>
<path fill="#010101" opacity="1.00" d="M1.5512162756919854,225.9737307906151 C9.581216275691986,225.98373079061508 17.621216275691985,225.87373079061507 25.661216275691984,226.0237307906151 C25.621216275691985,228.01373079061506 25.611216275691987,230.01373079061506 25.611216275691987,232.01373079061506 C22.911216275691984,232.00373079061512 20.211216275691996,232.01373079061506 17.521216275691984,232.03373079061515 C17.501216275691988,244.56373079061507 17.501216275691988,257.0937307906151 17.511216275691986,269.62373079061507 C14.88121627569199,269.69373079061506 12.251216275691991,269.6837307906151 9.621216275691985,269.63373079061506 C9.591216275691984,257.0937307906151 9.641216275691988,244.55373079061508 9.601216275691993,232.01373079061506 C6.911216275691985,232.01373079061506 4.221216275691987,231.99373079061507 1.5412162756919874,231.9737307906151 C1.5412162756919874,229.9637307906151 1.5412162756919874,227.9737307906151 1.5512162756919854,225.9737307906151 z" id="svg_14"/>
<path fill="#010101" opacity="1.00" d="M52.13121627569198,225.99373079061507 C54.76121627569199,225.94373079061506 57.39121627569199,225.95373079061505 60.021216275691984,225.93373079061507 C62.01121627569199,236.7837307906151 63.96121627569198,247.63373079061506 65.83121627569199,258.5037307906151 C68.44121627569199,247.80373079061508 69.71121627569198,236.80373079061508 71.74121627569198,225.98373079061508 C74.41121627569198,225.9737307906151 77.09121627569199,225.95373079061505 79.761216275692,225.99373079061507 C76.05121627569198,241.87373079061507 72.71121627569198,257.8537307906151 68.99121627569198,273.7337307906151 C67.32121627569198,279.8537307906151 60.03121627569199,281.1837307906151 54.57121627569198,280.9837307906151 C54.551216275691985,278.94373079061506 54.551216275691985,276.9137307906151 54.54121627569198,274.8937307906151 C57.191216275691986,274.8937307906151 59.86121627569199,274.63373079061506 62.301216275691985,273.5237307906151 C62.32121627569198,271.81373079061507 62.40121627569198,270.08373079061516 62.00121627569199,268.4237307906151 C58.74121627569198,254.2737307906151 55.35121627569199,240.1537307906151 52.13121627569198,225.99373079061507 z" id="svg_15"/>
<path fill="#010101" opacity="1.00" d="M224.05121627569198,226.03373079061515 C232.41121627569197,225.86373079061502 240.78121627569197,225.9737307906151 249.15121627569198,225.9737307906151 C249.17121627569196,240.5337307906151 249.191216275692,255.0937307906151 249.141216275692,269.6537307906151 C246.49121627569207,269.69373079061506 243.84121627569198,269.69373079061506 241.201216275692,269.5937307906151 C241.261216275692,257.063730790615 241.21121627569198,244.5437307906151 241.22121627569197,232.0237307906151 C238.131216275692,231.99373079061507 235.051216275692,231.99373079061507 231.97121627569197,232.03373079061515 C231.98121627569196,244.58373079061516 232.001216275692,257.1337307906151 231.96121627569198,269.6737307906151 C229.34121627569198,269.6737307906151 226.71121627569198,269.6537307906151 224.09121627569198,269.63373079061506 C224.071216275692,255.0937307906151 224.171216275692,240.56373079061507 224.05121627569198,226.03373079061515 z" id="svg_16"/>
</g></g></svg>